<svg width="364" height="421" viewBox="0 0 364 421" fill="none" xmlns="http://www.w3.org/2000/svg">
<g style="mix-blend-mode:multiply" opacity="0.7">
<g style="mix-blend-mode:multiply">
<path d="M237.12 360.891C271.995 348.867 301.31 324.574 319.602 292.539L260.289 263.711C251.93 276.825 240.217 287.467 226.363 294.533C212.509 301.6 197.018 304.834 181.494 303.901C165.97 302.969 150.977 297.904 138.069 289.23C125.16 280.556 114.805 268.589 108.076 254.568L46.5605 275.844C61.5935 311.562 89.6492 340.224 125.037 356.018C160.425 371.812 200.495 373.554 237.12 360.891Z" fill="url(#paint0_linear_16_42)"/>
</g>
</g>
<g style="mix-blend-mode:multiply">
<g style="mix-blend-mode:multiply">
<path d="M163.096 130.531C184.881 122.658 208.797 123.056 230.308 131.65C251.818 140.244 269.424 156.436 279.785 177.153L346.955 152.839C329.882 114.783 299.056 84.5859 260.656 68.301C222.256 52.0161 179.12 50.8467 139.894 65.0271C100.668 79.2075 68.2515 107.69 49.1415 144.765C30.0315 181.84 25.6407 224.768 36.8491 264.944L103.155 240.974C97.8907 218.419 101.085 194.716 112.133 174.359C123.182 154.003 141.315 138.408 163.096 130.531Z" fill="url(#paint1_linear_16_42)"/>
</g>
</g>
<path d="M245.534 179.523L228.95 252H200.697L192.303 210.848L183.908 252H155.655L139.071 179.523H163.537L170.089 225.18L179.916 179.523H204.689L214.516 225.18L221.068 179.523H245.534Z" fill="#01BAFA"/>
<defs>
<linearGradient id="paint0_linear_16_42" x1="211.737" y1="392.471" x2="250.45" y2="277.913" gradientUnits="userSpaceOnUse">
<stop stop-color="#00D2FF"/>
<stop offset="1" stop-color="#005FE4"/>
</linearGradient>
<linearGradient id="paint1_linear_16_42" x1="200.03" y1="330.448" x2="248.993" y2="107.393" gradientUnits="userSpaceOnUse">
<stop stop-color="#00D2FF"/>
<stop offset="1" stop-color="#005FE4"/>
</linearGradient>
</defs>
</svg>
