<svg width="471" height="288" viewBox="0 0 471 288" fill="none" xmlns="http://www.w3.org/2000/svg">
<path d="M442.841 10.5556C454.927 16.6035 464.115 27.2035 468.387 40.0248C472.658 52.8461 471.663 66.839 465.62 78.9267L375.297 259.503C372.313 265.493 368.176 270.834 363.124 275.222C358.072 279.61 352.204 282.958 345.856 285.074C339.508 287.19 332.804 288.032 326.13 287.553C319.456 287.074 312.942 285.283 306.961 282.282C294.902 276.217 285.744 265.613 281.499 252.799C277.253 239.986 278.268 226.011 284.32 213.946L374.539 33.4723C380.563 21.3808 391.14 12.1751 403.947 7.87809C416.754 3.581 430.744 4.54407 442.841 10.5556Z" fill="url(#paint0_linear_2_18)"/>
<path d="M281.563 10.5557C293.648 16.6036 302.837 27.2036 307.108 40.0248C311.38 52.8461 310.385 66.8391 304.342 78.9268L214.053 259.504C211.062 265.491 206.92 270.83 201.864 275.215C196.809 279.601 190.938 282.947 184.589 285.063C178.239 287.178 171.534 288.022 164.859 287.545C158.183 287.067 151.666 285.279 145.682 282.282C139.699 279.291 134.364 275.151 129.982 270.098C125.599 265.045 122.254 259.178 120.139 252.832C118.024 246.486 117.179 239.786 117.654 233.114C118.128 226.442 119.912 219.929 122.903 213.946L213.192 33.4724C216.174 27.4764 220.309 22.127 225.36 17.7298C230.411 13.3326 236.279 9.97391 242.628 7.84565C248.978 5.71738 255.684 4.86136 262.365 5.32636C269.046 5.79135 275.569 7.56833 281.563 10.5557Z" fill="url(#paint1_linear_2_18)"/>
<path d="M54.5353 0.200696C24.9391 0.200698 0.946648 24.1931 0.946651 53.7893C0.946653 83.3855 24.9391 107.378 54.5353 107.378C84.1314 107.378 108.124 83.3855 108.124 53.7893C108.124 24.1931 84.1314 0.200693 54.5353 0.200696Z" fill="url(#paint2_linear_2_18)"/>
<path d="M95.3356 119.654C75.4927 119.654 59.4069 135.74 59.4069 155.583C59.4069 175.426 75.4927 191.512 95.3356 191.512C115.179 191.512 131.264 175.426 131.264 155.583C131.264 135.74 115.179 119.654 95.3356 119.654Z" fill="url(#paint3_linear_2_18)"/>
<defs>
<linearGradient id="paint0_linear_2_18" x1="319.424" y1="15.5485" x2="391.916" y2="233.521" gradientUnits="userSpaceOnUse">
<stop stop-color="#00D2FF"/>
<stop offset="1" stop-color="#005FE4"/>
</linearGradient>
<linearGradient id="paint1_linear_2_18" x1="158.059" y1="15.5217" x2="230.525" y2="233.53" gradientUnits="userSpaceOnUse">
<stop stop-color="#00D2FF"/>
<stop offset="1" stop-color="#005FE4"/>
</linearGradient>
<linearGradient id="paint2_linear_2_18" x1="23.5499" y1="4.11577" x2="43.3144" y2="91.5037" gradientUnits="userSpaceOnUse">
<stop stop-color="#00D2FF"/>
<stop offset="1" stop-color="#005FE4"/>
</linearGradient>
<linearGradient id="paint3_linear_2_18" x1="74.5613" y1="122.279" x2="87.8126" y2="180.869" gradientUnits="userSpaceOnUse">
<stop stop-color="#00D2FF"/>
<stop offset="1" stop-color="#005FE4"/>
</linearGradient>
</defs>
</svg>
